PathFileType	4	(X/Y/Z)	/Users/niels/Desktop/University/Third Semester/Perception and Action/Exam/Gymnastics Motion Tracking/Code for Gym Tracking/Analyzed Data/Webcam_Backflip/temp_id5_2_trajectory_Sports2D/temp_id5_2_trajectory_Sports2D_px_person00.trc
DataRate	CameraRate	NumFrames	NumMarkers	Units	OrigDataRate	OrigDataStartFrame	OrigNumFrames
29.8125	29.8125	11	22	m	29.8125	140	160
Frame#	Time	Hip			RHip			RKnee			RAnkle			RBigToe			RSmallToe			RHeel			LHip			LKnee			LAnkle			LBigToe			LSmallToe			LHeel			Neck			Head			Nose			RShoulder			RElbow			RWrist			LShoulder			LElbow			LWrist		
		X1	Y1	Z1	X2	Y2	Z2	X3	Y3	Z3	X4	Y4	Z4	X5	Y5	Z5	X6	Y6	Z6	X7	Y7	Z7	X8	Y8	Z8	X9	Y9	Z9	X10	Y10	Z10	X11	Y11	Z11	X12	Y12	Z12	X13	Y13	Z13	X14	Y14	Z14	X15	Y15	Z15	X16	Y16	Z16	X17	Y17	Z17	X18	Y18	Z18	X19	Y19	Z19	X20	Y20	Z20	X21	Y21	Z21	X22	Y22	Z22
140	4.696016771488469	0.8764928766514303	-0.5663397115184389	0.0	0.8714904974497628	-0.5634521938821517	0.0	0.8735810122725453	-0.6690779620746566	0.0	0.8515025250188942	-0.7716108990345103	0.0	0.8819368095434429	-0.7908189862379706	0.0	0.8683030834707043	-0.7922636877955005	0.0	0.8417636802700006	-0.7866045258637601	0.0	0.8851223114239963	-0.5635059102078214	0.0	0.8854916804139067	-0.6688234108841663	0.0	0.8729897686543179	-0.7621789929507582	0.0	0.9045069708289479	-0.7839063612890044	0.0	0.9046917312400266	-0.7790881672148622	0.0	0.868560834026555	-0.7778263026388179	0.0	0.8766984721951351	-0.41742252029258936	0.0	0.8952536026767755	-0.3490031149618824	0.0	0.9095298943618993	-0.38582683710181076	0.0	0.8673652650628348	-0.4387407501700626	0.0	0.8639684868092541	-0.5110620886001132	0.0	0.884525509147788	-0.5730711562227953	0.0	0.8784329094193569	-0.4378878010674105	0.0	0.8768072794774063	-0.5042892921575797	0.0	0.8983996571938794	-0.560407340171462	0.0
141	4.729559748427672	0.8766403812581582	-0.566766277167191	0.0	0.8713531301187805	-0.5638591333224429	0.0	0.8737532207054333	-0.6695552398399398	0.0	0.851566023821669	-0.772388223133406	0.0	0.881527713353705	-0.7913840855621557	0.0	0.8680994476700105	-0.7929244312011744	0.0	0.8419644505188233	-0.7873311301032606	0.0	0.8853459798184886	-0.5639141580523309	0.0	0.8856207606928761	-0.6693195286190488	0.0	0.8728204085816961	-0.7631124852317496	0.0	0.9044841939807755	-0.7845905773759461	0.0	0.9047330833813974	-0.7799491703329209	0.0	0.8681883257329566	-0.778807111644848	0.0	0.8774832061850988	-0.4176266014136514	0.0	0.8960002500680162	-0.3492400952986131	0.0	0.9103190958937942	-0.3860807695742102	0.0	0.8682640696965993	-0.4390143058674201	0.0	0.8641903624349406	-0.5109613913979869	0.0	0.8847303593659566	-0.5727475170362123	0.0	0.8793530803491811	-0.43822704506242466	0.0	0.8784592038870456	-0.5049022556533994	0.0	0.9002503562579978	-0.5612042311379929	0.0
142	4.763102725366876	0.8768509736346368	-0.5684838881324139	0.0	0.8712832325795498	-0.5656184056121017	0.0	0.8739293628127016	-0.6713875203725468	0.0	0.8516966936490344	-0.7745372397611872	0.0	0.8818744377130625	-0.7932692418657972	0.0	0.8685344480618741	-0.7949675694051183	0.0	0.8421604866642557	-0.7895354060174719	0.0	0.8855308579786747	-0.5656484427925847	0.0	0.8856820017609767	-0.6711649204199506	0.0	0.8725944919650762	-0.7653874460486271	0.0	0.9045658211108188	-0.7866677826881192	0.0	0.9048532737008977	-0.7821975375438274	0.0	0.8676402199956483	-0.781153777403781	0.0	0.8784748171818094	-0.41931115063177266	0.0	0.8967258168462768	-0.35100679786866223	0.0	0.9111628405904436	-0.3879730546154444	0.0	0.8692183343208579	-0.440727307042791	0.0	0.8642437705020475	-0.5123015774977437	0.0	0.8846004492750115	-0.5739956837264176	0.0	0.8804730567136707	-0.44008284392172525	0.0	0.8804641625117207	-0.5069976982921215	0.0	0.9023179781877784	-0.5631863415637535	0.0
143	4.796645702306079	0.8771581147504192	-0.5713384360074696	0.0	0.8714138534677368	-0.5685524355586045	0.0	0.8741289089663112	-0.674386877899697	0.0	0.8518502968528173	-0.77786857927814	0.0	0.8831081180477361	-0.7963136987641654	0.0	0.8697515640176163	-0.7982050573536718	0.0	0.8422844470750376	-0.7929911832504081	0.0	0.8857165282961432	-0.5685178789454234	0.0	0.8856395385770813	-0.6741296308958692	0.0	0.8723408039965489	-0.768814813759782	0.0	0.9048608915732577	-0.789998692362849	0.0	0.9051271143326212	-0.7856880293638836	0.0	0.8669641972995629	-0.7846793687339538	0.0	0.8796508850432013	-0.42229000350295515	0.0	0.8974454378858722	-0.3541480675859316	0.0	0.9120465978763608	-0.39129544549784323	0.0	0.8701830737374817	-0.44367232476749063	0.0	0.8640782432719838	-0.5149480220379368	0.0	0.8839708777955453	-0.5767937309083447	0.0	0.881832931716174	-0.44321039415471103	0.0	0.8828256852627182	-0.5104218985713008	0.0	0.9046069943984268	-0.5661591888443627	0.0
144	4.830188679245282	0.8776185722396954	-0.5750676064760871	0.0	0.871854198187573	-0.5723674641530133	0.0	0.8743904481508727	-0.6782273025595458	0.0	0.8519381690307416	-0.7820785515154596	0.0	0.8851922819702355	-0.8002399342186546	0.0	0.8717299804424803	-0.8023480524519214	0.0	0.842209461211054	-0.7973203649904932	0.0	0.8860212199649996	-0.5722135922897595	0.0	0.8855508632296868	-0.677873105499698	0.0	0.872108164159496	-0.773161521160956	0.0	0.9054487348965669	-0.794303772114142	0.0	0.9055701782466974	-0.7901595522324306	0.0	0.8662660710253018	-0.7890793269945927	0.0	0.8809728291395826	-0.426234482620784	0.0	0.8981757623376768	-0.35840444063070087	0.0	0.9128773462709248	-0.3956655781894649	0.0	0.8710397616109741	-0.44755295141198426	0.0	0.8636229388672533	-0.5186225178856593	0.0	0.8826291351501653	-0.580975702309855	0.0	0.8835774630179113	-0.4472903708658523	0.0	0.8855793369611394	-0.5149501762626665	0.0	0.9071845193794368	-0.5699865143077911	0.0
145	4.863731656184486	0.8783099648710372	-0.5793272638820938	0.0	0.8726518294931859	-0.5766854302383394	0.0	0.8747588703946247	-0.6824824365332645	0.0	0.8519044781112386	-0.7867415619824316	0.0	0.8879067427595362	-0.8046407783959026	0.0	0.8742423203731966	-0.8069923214701752	0.0	0.8418538167342079	-0.8020130403667033	0.0	0.8866209038817825	-0.5763533264588343	0.0	0.8855436456940512	-0.6820053048991779	0.0	0.8719844421835776	-0.778122624192988	0.0	0.9063201918007202	-0.7991497854920752	0.0	0.9061370696370417	-0.7951932974234208	0.0	0.8657043192077793	-0.7939353241176165	0.0	0.8824289819690434	-0.43071453114161434	0.0	0.8989047657815397	-0.36337635709273003	0.0	0.9135091602998078	-0.40056986444760273	0.0	0.8716230536936816	-0.45200541022170354	0.0	0.8628033855613486	-0.5229056697825646	0.0	0.8803722911589913	-0.5861460531306978	0.0	0.8859179561081162	-0.4519365328313878	0.0	0.8887307751364473	-0.5202285955138235	0.0	0.9100738488016349	-0.5745065485804669	0.0
146	4.897274633123689	0.8792820409042326	-0.5836821419503666	0.0	0.8737303032552282	-0.5810626550985312	0.0	0.8752829691613092	-0.6866710639915142	0.0	0.851757807055313	-0.7913571661980947	0.0	0.8908268309308935	-0.8090175940422287	0.0	0.8768718402977941	-0.8115964885853529	0.0	0.8412877985582832	-0.8064867842867306	0.0	0.8876170302933897	-0.58052154041024	0.0	0.8857485388131572	-0.6861194286878971	0.0	0.8720588481921268	-0.7832906922219818	0.0	0.9073530221644565	-0.8040126784883076	0.0	0.906744018816696	-0.8002672912105243	0.0	0.8654630413489984	-0.7987744295178025	0.0	0.8840372705531607	-0.43526601923416797	0.0	0.8995806809693786	-0.36851488975499086	0.0	0.9138160129595374	-0.4054311925804558	0.0	0.8717973681825488	-0.45661896327536866	0.0	0.8615486182343662	-0.5273037177809999	0.0	0.8770473545682399	-0.5917048536703606	0.0	0.8890296534142155	-0.45668045047985406	0.0	0.8921893713768727	-0.5257493488161948	0.0	0.9131359869419964	-0.5794532725911956	0.0
147	4.930817610062892	0.8804911483364876	-0.5876298125027852	0.0	0.8748853594882064	-0.5850147142854414	0.0	0.8760348091340291	-0.690320019071615	0.0	0.8515325633470416	-0.7954356824886097	0.0	0.8934099843254361	-0.8128761211569019	0.0	0.8791173775428608	-0.8155504035233788	0.0	0.8406632732041184	-0.8102131406279348	0.0	0.8889587270745604	-0.584308852155387	0.0	0.8862404921146051	-0.6897899561696492	0.0	0.8723474550663055	-0.7881652964383903	0.0	0.9083836418273176	-0.8083604887378126	0.0	0.9073047786430197	-0.8048741603023101	0.0	0.8656848171048784	-0.8031272826464281	0.0	0.8858168835119208	-0.43942637469227414	0.0	0.9001612580542526	-0.37322184974889194	0.0	0.9137750185344472	-0.40971578646021317	0.0	0.8715242187982755	-0.46093361387316767	0.0	0.859801108898433	-0.5312870533576209	0.0	0.8726075164407898	-0.5969382854682252	0.0	0.8929897093329007	-0.46101191518769813	0.0	0.8958212706441431	-0.5309062592848531	0.0	0.9160951187076709	-0.5844237184946176	0.0
148	4.964360587002096	0.8818141167313994	-0.5906999253789789	0.0	0.8758682647277426	-0.5880876242172437	0.0	0.8770990431984292	-0.6930522719317289	0.0	0.8512660912064887	-0.7985722946373961	0.0	0.8952254150860803	-0.8158258505101907	0.0	0.8805984369796191	-0.8183614788783711	0.0	0.8400813294132348	-0.8128352299965782	0.0	0.8905227493024832	-0.5873552513240816	0.0	0.8870198775592122	-0.6926163465135985	0.0	0.8727727892504201	-0.7922279693376784	0.0	0.9093012957738054	-0.8117253265998459	0.0	0.9077605243662867	-0.8085963915325238	0.0	0.8663651089352293	-0.806565981436346	0.0	0.8877701045679286	-0.44275259245605325	0.0	0.9006852750721883	-0.3769950687069338	0.0	0.9134998332980321	-0.4130134940108805	0.0	0.8708733088460855	-0.4644613537697614	0.0	0.8575693818432977	-0.5343170019233943	0.0	0.8672015510025122	-0.6011409919520857	0.0	0.8977587766463738	-0.46445596777305265	0.0	0.8995436138222551	-0.5351009679021472	0.0	0.9186879433737373	-0.588946204488227	0.0
149	4.997903563941299	0.8831222773409196	-0.5925265134168536	0.0	0.8764529980901018	-0.589947033397097	0.0	0.8784893348482045	-0.6946372842707212	0.0	0.8510288082590453	-0.8004588439647901	0.0	0.896011244531309	-0.817625588135986	0.0	0.8811271081860884	-0.819810162153798	0.0	0.8396215362832686	-0.814156477997281	0.0	0.892222814913665	-0.5893735940032456	0.0	0.8880626393698183	-0.6943249871514207	0.0	0.8732247479664399	-0.7950347446093637	0.0	0.9100577421526415	-0.8137629601463987	0.0	0.908079654120432	-0.8110796174003053	0.0	0.8673280526354961	-0.8087527829773392	0.0	0.8898870178131014	-0.44488951420597483	0.0	0.9013037315297988	-0.3795002343505591	0.0	0.913165074028659	-0.41506080279214624	0.0	0.8699833933585415	-0.46678118300012583	0.0	0.8549616859365361	-0.5359694209534378	0.0	0.8611820805550382	-0.6037668985105414	0.0	0.9031521548046569	-0.4666530344403076	0.0	0.9033290708208392	-0.5378347210078147	0.0	0.9207842937150691	-0.5925851988692618	0.0
150	5.031446540880502	0.8843223602475057	-0.5928677211912851	0.0	0.8764725033364681	-0.5904210292805226	0.0	0.8801512501290011	-0.6949629555246333	0.0	0.8509449077243685	-0.8008422685344253	0.0	0.8956126532945793	-0.8181503499904453	0.0	0.8806529590013743	-0.819897434774571	0.0	0.8394134699848355	-0.8140386953180558	0.0	0.894028975351967	-0.5901541098406912	0.0	0.8893823803740373	-0.6948083222134714	0.0	0.8736222756788019	-0.7962794648420203	0.0	0.9106356773366228	-0.8143014098494715	0.0	0.9082454085744822	-0.8120502462155149	0.0	0.8683517406475125	-0.8095059093430838	0.0	0.8921575312372207	-0.44563451327676296	0.0	0.9022235419452428	-0.38057132124741155	0.0	0.9128986824481493	-0.4157484308333985	0.0	0.8690143015791222	-0.4676488184309082	0.0	0.8521604341543203	-0.536067861451787	0.0	0.8549614833284743	-0.6045504358368927	0.0	0.9088616307172185	-0.46743798491735694	0.0	0.9071936493887479	-0.5387840023972058	0.0	0.9224444496950507	-0.59500275554886	0.0
